<mxfile host="app.diagrams.net" modified="2022-04-08T12:48:11.379Z" agent="5.0 (Windows NT 10.0; Win64; x64) AppleWebKit/537.36 (KHTML, like Gecko) Chrome/100.0.4896.60 Safari/537.36 Edg/100.0.1185.29" etag="EsxT__qMHV42Tc_Fq-Ax" version="17.4.0" type="github">
  <diagram id="RKubJUh8WFsl4mIGJsm3" name="Page-1">
    <mxGraphModel dx="1165" dy="644" grid="1" gridSize="10" guides="1" tooltips="1" connect="1" arrows="1" fold="1" page="1" pageScale="1" pageWidth="827" pageHeight="1169" math="0" shadow="0">
      <root>
        <mxCell id="0" />
        <mxCell id="1" parent="0" />
        <mxCell id="-BeJgGORgZOXE1p5RENJ-4" value="" style="edgeStyle=orthogonalEdgeStyle;rounded=0;orthogonalLoop=1;jettySize=auto;html=1;" edge="1" parent="1" source="-BeJgGORgZOXE1p5RENJ-2" target="-BeJgGORgZOXE1p5RENJ-3">
          <mxGeometry relative="1" as="geometry" />
        </mxCell>
        <mxCell id="-BeJgGORgZOXE1p5RENJ-2" value="用户输入" style="rounded=1;whiteSpace=wrap;html=1;" vertex="1" parent="1">
          <mxGeometry x="335" y="80" width="100" height="40" as="geometry" />
        </mxCell>
        <mxCell id="-BeJgGORgZOXE1p5RENJ-10" value="" style="edgeStyle=orthogonalEdgeStyle;rounded=0;orthogonalLoop=1;jettySize=auto;html=1;" edge="1" parent="1" source="-BeJgGORgZOXE1p5RENJ-3" target="-BeJgGORgZOXE1p5RENJ-9">
          <mxGeometry relative="1" as="geometry" />
        </mxCell>
        <mxCell id="-BeJgGORgZOXE1p5RENJ-18" value="" style="edgeStyle=orthogonalEdgeStyle;rounded=0;orthogonalLoop=1;jettySize=auto;html=1;" edge="1" parent="1" source="-BeJgGORgZOXE1p5RENJ-3" target="-BeJgGORgZOXE1p5RENJ-8">
          <mxGeometry relative="1" as="geometry" />
        </mxCell>
        <mxCell id="-BeJgGORgZOXE1p5RENJ-3" value="输入合法性检查" style="rhombus;whiteSpace=wrap;html=1;" vertex="1" parent="1">
          <mxGeometry x="335" y="150" width="100" height="60" as="geometry" />
        </mxCell>
        <mxCell id="-BeJgGORgZOXE1p5RENJ-6" value="F" style="text;html=1;align=center;verticalAlign=middle;resizable=0;points=[];autosize=1;strokeColor=none;fillColor=none;" vertex="1" parent="1">
          <mxGeometry x="450" y="160" width="20" height="20" as="geometry" />
        </mxCell>
        <mxCell id="-BeJgGORgZOXE1p5RENJ-8" value="提示输入格式错误" style="rounded=1;whiteSpace=wrap;html=1;" vertex="1" parent="1">
          <mxGeometry x="490" y="160" width="100" height="40" as="geometry" />
        </mxCell>
        <mxCell id="-BeJgGORgZOXE1p5RENJ-13" value="" style="edgeStyle=orthogonalEdgeStyle;rounded=0;orthogonalLoop=1;jettySize=auto;html=1;" edge="1" parent="1" source="-BeJgGORgZOXE1p5RENJ-9" target="-BeJgGORgZOXE1p5RENJ-12">
          <mxGeometry relative="1" as="geometry" />
        </mxCell>
        <mxCell id="-BeJgGORgZOXE1p5RENJ-9" value="分词" style="whiteSpace=wrap;html=1;" vertex="1" parent="1">
          <mxGeometry x="335" y="250" width="100" height="40" as="geometry" />
        </mxCell>
        <mxCell id="-BeJgGORgZOXE1p5RENJ-11" value="T" style="text;html=1;align=center;verticalAlign=middle;resizable=0;points=[];autosize=1;strokeColor=none;fillColor=none;" vertex="1" parent="1">
          <mxGeometry x="390" y="220" width="20" height="20" as="geometry" />
        </mxCell>
        <mxCell id="-BeJgGORgZOXE1p5RENJ-15" value="" style="edgeStyle=orthogonalEdgeStyle;rounded=0;orthogonalLoop=1;jettySize=auto;html=1;" edge="1" parent="1" source="-BeJgGORgZOXE1p5RENJ-12" target="-BeJgGORgZOXE1p5RENJ-14">
          <mxGeometry relative="1" as="geometry" />
        </mxCell>
        <mxCell id="-BeJgGORgZOXE1p5RENJ-12" value="检索数据" style="whiteSpace=wrap;html=1;" vertex="1" parent="1">
          <mxGeometry x="335" y="330" width="100" height="40" as="geometry" />
        </mxCell>
        <mxCell id="-BeJgGORgZOXE1p5RENJ-17" value="" style="edgeStyle=orthogonalEdgeStyle;rounded=0;orthogonalLoop=1;jettySize=auto;html=1;" edge="1" parent="1" source="-BeJgGORgZOXE1p5RENJ-14" target="-BeJgGORgZOXE1p5RENJ-16">
          <mxGeometry relative="1" as="geometry" />
        </mxCell>
        <mxCell id="-BeJgGORgZOXE1p5RENJ-14" value="处理数据格式" style="whiteSpace=wrap;html=1;" vertex="1" parent="1">
          <mxGeometry x="335" y="410" width="100" height="40" as="geometry" />
        </mxCell>
        <mxCell id="-BeJgGORgZOXE1p5RENJ-16" value="渲染到前端" style="rounded=1;whiteSpace=wrap;html=1;" vertex="1" parent="1">
          <mxGeometry x="335" y="480" width="100" height="40" as="geometry" />
        </mxCell>
      </root>
    </mxGraphModel>
  </diagram>
</mxfile>
